<?xml version="1.0" encoding="UTF-8" standalone="no"?>
<!DOCTYPE svg PUBLIC "-//W3C//DTD SVG 1.1//EN"
 "http://www.w3.org/Graphics/SVG/1.1/DTD/svg11.dtd">
<!-- Generated by graphviz version 2.42.4 (0)
 -->
<!-- Title: pipeline Pages: 1 -->
<svg width="1031pt" height="1289pt"
 viewBox="0.00 0.00 1030.60 1288.97" xmlns="http://www.w3.org/2000/svg" xmlns:xlink="http://www.w3.org/1999/xlink">
<g id="graph0" class="graph" transform="scale(1 1) rotate(0) translate(28.8 1260.17)">
<title>pipeline</title>
<polygon fill="white" stroke="transparent" points="-28.8,28.8 -28.8,-1260.17 1001.8,-1260.17 1001.8,28.8 -28.8,28.8"/>
<text text-anchor="middle" x="486.5" y="-1208.17" font-family="Helvetica,sans-Serif" font-weight="bold" font-size="24.00">Data pipeline flow · DAG latam_bank_gcp</text>
<text text-anchor="middle" x="486.5" y="-1182.17" font-family="Helvetica,sans-Serif" font-weight="bold" font-size="24.00"> </text>
<g id="clust1" class="cluster">
<title>cluster_airflow</title>
<path fill="#f8fbff" stroke="#aecbfa" d="M20,-216.81C20,-216.81 591,-216.81 591,-216.81 597,-216.81 603,-222.81 603,-228.81 603,-228.81 603,-1055.38 603,-1055.38 603,-1061.38 597,-1067.38 591,-1067.38 591,-1067.38 20,-1067.38 20,-1067.38 14,-1067.38 8,-1061.38 8,-1055.38 8,-1055.38 8,-228.81 8,-228.81 8,-222.81 14,-216.81 20,-216.81"/>
<text text-anchor="middle" x="305.5" y="-1052.17" font-family="Helvetica,sans-Serif" font-weight="bold" font-size="14.00">Airflow 3 on a Compute Engine VM · each step with its own log and retries</text>
</g>
<!-- s3 -->
<g id="node1" class="node">
<title>s3</title>
<path fill="#ffffff" stroke="#5f6368" stroke-width="1.6" d="M546.5,-1171.38C546.5,-1171.38 315.5,-1171.38 315.5,-1171.38 309.5,-1171.38 303.5,-1165.38 303.5,-1159.38 303.5,-1159.38 303.5,-1121.38 303.5,-1121.38 303.5,-1115.38 309.5,-1109.38 315.5,-1109.38 315.5,-1109.38 546.5,-1109.38 546.5,-1109.38 552.5,-1109.38 558.5,-1115.38 558.5,-1121.38 558.5,-1121.38 558.5,-1159.38 558.5,-1159.38 558.5,-1165.38 552.5,-1171.38 546.5,-1171.38"/>
<text text-anchor="middle" x="431" y="-1150.97" font-family="Helvetica,sans-Serif" font-size="13.00">Organizer S3</text>
<text text-anchor="middle" x="431" y="-1136.97" font-family="Helvetica,sans-Serif" font-size="13.00">13 CSV tables, partitioned by day</text>
<text text-anchor="middle" x="431" y="-1122.97" font-family="Helvetica,sans-Serif" font-size="13.00">~23.5 million rows</text>
</g>
<!-- extract -->
<g id="node2" class="node">
<title>extract</title>
<path fill="#e8f0fe" stroke="#1a73e8" stroke-width="1.6" d="M569,-1022.38C569,-1022.38 293,-1022.38 293,-1022.38 287,-1022.38 281,-1016.38 281,-1010.38 281,-1010.38 281,-975.38 281,-975.38 281,-969.38 287,-963.38 293,-963.38 293,-963.38 569,-963.38 569,-963.38 575,-963.38 581,-969.38 581,-975.38 581,-975.38 581,-1010.38 581,-1010.38 581,-1016.38 575,-1022.38 569,-1022.38"/>
<text text-anchor="start" x="364.5" y="-1002.98" font-family="Helvetica,sans-Serif" font-weight="bold" font-size="13.00">1 · extract_bronze</text>
<text text-anchor="start" x="356" y="-989.98" font-family="Helvetica,sans-Serif" font-size="13.00">DuckDB reads from S3</text>
<text text-anchor="start" x="297" y="-976.98" font-family="Helvetica,sans-Serif" font-size="13.00">each row keeps its source (_source_key)</text>
</g>
<!-- s3&#45;&gt;extract -->
<g id="edge1" class="edge">
<title>s3&#45;&gt;extract</title>
<path fill="none" stroke="#5f6368" stroke-width="1.4" d="M431,-1109.23C431,-1087.04 431,-1056.69 431,-1032.69"/>
<polygon fill="#5f6368" stroke="#5f6368" stroke-width="1.4" points="434.5,-1032.5 431,-1022.5 427.5,-1032.5 434.5,-1032.5"/>
<text text-anchor="middle" x="442" y="-1078.58" font-family="Helvetica,sans-Serif" font-size="11.00" fill="#3c4043">CSV</text>
</g>
<!-- export_b -->
<g id="node3" class="node">
<title>export_b</title>
<path fill="#e8f0fe" stroke="#1a73e8" stroke-width="1.6" d="M549,-918.38C549,-918.38 381,-918.38 381,-918.38 375,-918.38 369,-912.38 369,-906.38 369,-906.38 369,-884.38 369,-884.38 369,-878.38 375,-872.38 381,-872.38 381,-872.38 549,-872.38 549,-872.38 555,-872.38 561,-878.38 561,-884.38 561,-884.38 561,-906.38 561,-906.38 561,-912.38 555,-918.38 549,-918.38"/>
<text text-anchor="start" x="400.5" y="-898.98" font-family="Helvetica,sans-Serif" font-weight="bold" font-size="13.00">2 · export_bronze</text>
<text text-anchor="start" x="385" y="-885.98" font-family="Helvetica,sans-Serif" font-size="13.00">bronze as Parquet ZSTD</text>
</g>
<!-- extract&#45;&gt;export_b -->
<g id="edge2" class="edge">
<title>extract&#45;&gt;export_b</title>
<path fill="none" stroke="#5f6368" stroke-width="1.4" d="M441.2,-963.22C445.13,-952.17 449.65,-939.49 453.68,-928.16"/>
<polygon fill="#5f6368" stroke="#5f6368" stroke-width="1.4" points="457.02,-929.23 457.08,-918.63 450.42,-926.88 457.02,-929.23"/>
</g>
<!-- dbt -->
<g id="node4" class="node">
<title>dbt</title>
<path fill="#e8f0fe" stroke="#1a73e8" stroke-width="1.6" d="M569,-827.38C569,-827.38 361,-827.38 361,-827.38 355,-827.38 349,-821.38 349,-815.38 349,-815.38 349,-780.38 349,-780.38 349,-774.38 355,-768.38 361,-768.38 361,-768.38 569,-768.38 569,-768.38 575,-768.38 581,-774.38 581,-780.38 581,-780.38 581,-815.38 581,-815.38 581,-821.38 575,-827.38 569,-827.38"/>
<text text-anchor="start" x="419.5" y="-807.98" font-family="Helvetica,sans-Serif" font-weight="bold" font-size="13.00">3 · dbt_build</text>
<text text-anchor="start" x="387.5" y="-794.98" font-family="Helvetica,sans-Serif" font-size="13.00">dbt&#45;duckdb, in memory</text>
<text text-anchor="start" x="365" y="-781.98" font-family="Helvetica,sans-Serif" font-size="13.00">silver, gold and the data tests</text>
</g>
<!-- export_b&#45;&gt;dbt -->
<g id="edge3" class="edge">
<title>export_b&#45;&gt;dbt</title>
<path fill="none" stroke="#5f6368" stroke-width="1.4" d="M465,-872.23C465,-861.91 465,-849.34 465,-837.53"/>
<polygon fill="#5f6368" stroke="#5f6368" stroke-width="1.4" points="468.5,-837.43 465,-827.43 461.5,-837.43 468.5,-837.43"/>
</g>
<!-- lake -->
<g id="node11" class="node">
<title>lake</title>
<path fill="#e8f0fe" stroke="#1a73e8" stroke-width="1.6" d="M809,-295.05C809,-299.13 767.76,-302.44 717,-302.44 666.24,-302.44 625,-299.13 625,-295.05 625,-295.05 625,-228.57 625,-228.57 625,-224.5 666.24,-221.19 717,-221.19 767.76,-221.19 809,-224.5 809,-228.57 809,-228.57 809,-295.05 809,-295.05"/>
<path fill="none" stroke="#1a73e8" stroke-width="1.6" d="M809,-295.05C809,-290.98 767.76,-287.66 717,-287.66 666.24,-287.66 625,-290.98 625,-295.05"/>
<text text-anchor="start" x="665" y="-271.91" font-family="Helvetica,sans-Serif" font-weight="bold" font-size="13.00">Cloud Storage</text>
<text text-anchor="start" x="683.5" y="-258.91" font-family="Helvetica,sans-Serif" font-size="13.00">lakehouse</text>
<text text-anchor="start" x="641" y="-245.91" font-family="Helvetica,sans-Serif" font-size="13.00">bronze/ · silver/ · docs/</text>
</g>
<!-- export_b&#45;&gt;lake -->
<g id="edge10" class="edge">
<title>export_b&#45;&gt;lake</title>
<path fill="none" stroke="#1a73e8" stroke-width="1.4" stroke-dasharray="5,2" d="M561.27,-893.84C697.73,-890.43 931,-873.67 931,-798.88 931,-798.88 931,-798.88 931,-380.38 931,-324.49 874.25,-294.99 819.19,-279.51"/>
<polygon fill="#1a73e8" stroke="#1a73e8" stroke-width="1.4" points="819.87,-276.07 809.31,-276.88 818.07,-282.84 819.87,-276.07"/>
<text text-anchor="middle" x="952" y="-572.58" font-family="Helvetica,sans-Serif" font-size="11.00" fill="#3c4043">bronze/</text>
</g>
<!-- gate -->
<g id="node5" class="node">
<title>gate</title>
<path fill="#fef7e0" stroke="#f9ab00" stroke-width="1.6" d="M467.68,-719.41C467.68,-719.41 393.32,-693.34 393.32,-693.34 387.66,-691.36 387.66,-687.39 393.32,-685.41 393.32,-685.41 467.68,-659.34 467.68,-659.34 473.34,-657.36 484.66,-657.36 490.32,-659.34 490.32,-659.34 564.68,-685.41 564.68,-685.41 570.34,-687.39 570.34,-691.36 564.68,-693.34 564.68,-693.34 490.32,-719.41 490.32,-719.41 484.66,-721.39 473.34,-721.39 467.68,-719.41"/>
<text text-anchor="start" x="434.5" y="-692.98" font-family="Helvetica,sans-Serif" font-size="13.00">do the </text>
<text text-anchor="start" x="482.5" y="-692.98" font-family="Helvetica,sans-Serif" font-weight="bold" font-size="13.00">silver</text>
<text text-anchor="start" x="442" y="-679.98" font-family="Helvetica,sans-Serif" font-size="13.00">tests pass?</text>
</g>
<!-- dbt&#45;&gt;gate -->
<g id="edge4" class="edge">
<title>dbt&#45;&gt;gate</title>
<path fill="none" stroke="#5f6368" stroke-width="1.4" d="M468.75,-768.33C470.22,-757.17 471.93,-744.14 473.53,-731.96"/>
<polygon fill="#5f6368" stroke="#5f6368" stroke-width="1.4" points="477.01,-732.37 474.84,-722 470.07,-731.45 477.01,-732.37"/>
</g>
<!-- export_s -->
<g id="node6" class="node">
<title>export_s</title>
<path fill="#e8f0fe" stroke="#1a73e8" stroke-width="1.6" d="M558.5,-598.38C558.5,-598.38 399.5,-598.38 399.5,-598.38 393.5,-598.38 387.5,-592.38 387.5,-586.38 387.5,-586.38 387.5,-564.38 387.5,-564.38 387.5,-558.38 393.5,-552.38 399.5,-552.38 399.5,-552.38 558.5,-552.38 558.5,-552.38 564.5,-552.38 570.5,-558.38 570.5,-564.38 570.5,-564.38 570.5,-586.38 570.5,-586.38 570.5,-592.38 564.5,-598.38 558.5,-598.38"/>
<text text-anchor="start" x="419.5" y="-578.98" font-family="Helvetica,sans-Serif" font-weight="bold" font-size="13.00">4 · export_silver</text>
<text text-anchor="start" x="403.5" y="-565.98" font-family="Helvetica,sans-Serif" font-size="13.00">silver as Parquet ZSTD</text>
</g>
<!-- gate&#45;&gt;export_s -->
<g id="edge5" class="edge">
<title>gate&#45;&gt;export_s</title>
<path fill="none" stroke="#188038" stroke-width="2.2" d="M479,-655.07C479,-640.34 479,-623.08 479,-608.48"/>
<polygon fill="#188038" stroke="#188038" stroke-width="2.2" points="482.5,-608.4 479,-598.4 475.5,-608.4 482.5,-608.4"/>
<text text-anchor="middle" x="489" y="-624.58" font-family="Helvetica,sans-Serif" font-size="11.00" fill="#188038">yes</text>
</g>
<!-- keep -->
<g id="node10" class="node">
<title>keep</title>
<polygon fill="#fce8e6" stroke="#ea4335" stroke-width="1.6" points="853,-599.38 625,-599.38 625,-551.38 859,-551.38 859,-593.38 853,-599.38"/>
<polyline fill="none" stroke="#ea4335" stroke-width="1.6" points="853,-599.38 853,-593.38 "/>
<polyline fill="none" stroke="#ea4335" stroke-width="1.6" points="859,-593.38 853,-593.38 "/>
<text text-anchor="middle" x="742" y="-578.98" font-family="Helvetica,sans-Serif" font-size="13.00">The run fails visibly.</text>
<text text-anchor="middle" x="742" y="-564.98" font-family="Helvetica,sans-Serif" font-size="13.00">gold keeps the last valid data.</text>
</g>
<!-- gate&#45;&gt;keep -->
<g id="edge9" class="edge">
<title>gate&#45;&gt;keep</title>
<path fill="none" stroke="#ea4335" stroke-width="2.2" d="M521.55,-670.26C563.94,-652.2 629.54,-624.27 678.17,-603.56"/>
<polygon fill="#ea4335" stroke="#ea4335" stroke-width="2.2" points="679.82,-606.66 687.65,-599.52 677.08,-600.22 679.82,-606.66"/>
<text text-anchor="middle" x="641" y="-624.58" font-family="Helvetica,sans-Serif" font-size="11.00" fill="#ea4335">no</text>
</g>
<!-- publish -->
<g id="node7" class="node">
<title>publish</title>
<path fill="#fce8e6" stroke="#ea4335" stroke-width="1.6" d="M549,-506.38C549,-506.38 397,-506.38 397,-506.38 391,-506.38 385,-500.38 385,-494.38 385,-494.38 385,-472.38 385,-472.38 385,-466.38 391,-460.38 397,-460.38 397,-460.38 549,-460.38 549,-460.38 555,-460.38 561,-466.38 561,-472.38 561,-472.38 561,-494.38 561,-494.38 561,-500.38 555,-506.38 549,-506.38"/>
<text text-anchor="start" x="415.5" y="-486.98" font-family="Helvetica,sans-Serif" font-weight="bold" font-size="13.00">5 · publish_gold</text>
<text text-anchor="start" x="401" y="-473.98" font-family="Helvetica,sans-Serif" font-size="13.00">only the gold.* tables</text>
</g>
<!-- export_s&#45;&gt;publish -->
<g id="edge6" class="edge">
<title>export_s&#45;&gt;publish</title>
<path fill="none" stroke="#5f6368" stroke-width="1.4" d="M477.52,-552.13C476.81,-541.53 475.95,-528.64 475.17,-516.96"/>
<polygon fill="#5f6368" stroke="#5f6368" stroke-width="1.4" points="478.64,-516.42 474.49,-506.68 471.66,-516.89 478.64,-516.42"/>
</g>
<!-- export_s&#45;&gt;lake -->
<g id="edge11" class="edge">
<title>export_s&#45;&gt;lake</title>
<path fill="none" stroke="#1a73e8" stroke-width="1.4" stroke-dasharray="5,2" d="M520.21,-552.28C539.65,-540.46 562.21,-524.59 579,-506.38 632.95,-447.83 674.36,-364.49 697.19,-312.05"/>
<polygon fill="#1a73e8" stroke="#1a73e8" stroke-width="1.4" points="700.5,-313.2 701.23,-302.63 694.07,-310.44 700.5,-313.2"/>
<text text-anchor="middle" x="653" y="-429.57" font-family="Helvetica,sans-Serif" font-size="11.00" fill="#3c4043">silver/</text>
</g>
<!-- docs -->
<g id="node8" class="node">
<title>docs</title>
<path fill="#e8f0fe" stroke="#1a73e8" stroke-width="1.6" d="M569,-404.38C569,-404.38 377,-404.38 377,-404.38 371,-404.38 365,-398.38 365,-392.38 365,-392.38 365,-370.38 365,-370.38 365,-364.38 371,-358.38 377,-358.38 377,-358.38 569,-358.38 569,-358.38 575,-358.38 581,-364.38 581,-370.38 581,-370.38 581,-392.38 581,-392.38 581,-398.38 575,-404.38 569,-404.38"/>
<text text-anchor="start" x="429" y="-384.98" font-family="Helvetica,sans-Serif" font-weight="bold" font-size="13.00">6 · dbt_docs</text>
<text text-anchor="start" x="381" y="-371.98" font-family="Helvetica,sans-Serif" font-size="13.00">lineage and documentation</text>
</g>
<!-- publish&#45;&gt;docs -->
<g id="edge7" class="edge">
<title>publish&#45;&gt;docs</title>
<path fill="none" stroke="#5f6368" stroke-width="1.4" d="M473,-460.18C473,-446.85 473,-429.64 473,-414.8"/>
<polygon fill="#5f6368" stroke="#5f6368" stroke-width="1.4" points="476.5,-414.51 473,-404.51 469.5,-414.51 476.5,-414.51"/>
</g>
<!-- sql -->
<g id="node12" class="node">
<title>sql</title>
<path fill="#fce8e6" stroke="#ea4335" stroke-width="1.6" d="M444.5,-159.6C444.5,-162.79 397.66,-165.38 340,-165.38 282.34,-165.38 235.5,-162.79 235.5,-159.6 235.5,-159.6 235.5,-107.65 235.5,-107.65 235.5,-104.46 282.34,-101.87 340,-101.87 397.66,-101.87 444.5,-104.46 444.5,-107.65 444.5,-107.65 444.5,-159.6 444.5,-159.6"/>
<path fill="none" stroke="#ea4335" stroke-width="1.6" d="M444.5,-159.6C444.5,-156.42 397.66,-153.83 340,-153.83 282.34,-153.83 235.5,-156.42 235.5,-159.6"/>
<text text-anchor="start" x="251.5" y="-137.22" font-family="Helvetica,sans-Serif" font-weight="bold" font-size="13.00">Cloud SQL</text>
<text text-anchor="start" x="326.5" y="-137.22" font-family="Helvetica,sans-Serif" font-size="13.00"> PostgreSQL 18</text>
<text text-anchor="start" x="273" y="-124.22" font-family="Helvetica,sans-Serif" font-size="13.00">gold.* · ops.etl_runs</text>
</g>
<!-- publish&#45;&gt;sql -->
<g id="edge13" class="edge">
<title>publish&#45;&gt;sql</title>
<path fill="none" stroke="#ea4335" stroke-width="2.2" d="M412.86,-460.32C387.95,-447.9 361.54,-429.7 347,-404.38 305.71,-332.47 318.17,-231.06 329.79,-175.31"/>
<polygon fill="#ea4335" stroke="#ea4335" stroke-width="2.2" points="333.23,-175.96 331.94,-165.44 326.39,-174.47 333.23,-175.96"/>
<text text-anchor="middle" x="338.5" y="-327.57" font-family="Helvetica,sans-Serif" font-size="11.00" fill="#3c4043">gold.*</text>
</g>
<!-- record -->
<g id="node9" class="node">
<title>record</title>
<path fill="#e8f0fe" stroke="#1a73e8" stroke-width="1.6" d="M501,-284.81C501,-284.81 387,-284.81 387,-284.81 381,-284.81 375,-278.81 375,-272.81 375,-272.81 375,-250.81 375,-250.81 375,-244.81 381,-238.81 387,-238.81 387,-238.81 501,-238.81 501,-238.81 507,-238.81 513,-244.81 513,-250.81 513,-250.81 513,-272.81 513,-272.81 513,-278.81 507,-284.81 501,-284.81"/>
<text text-anchor="start" x="392.5" y="-265.41" font-family="Helvetica,sans-Serif" font-weight="bold" font-size="13.00">7 · record_run</text>
<text text-anchor="start" x="391" y="-252.41" font-family="Helvetica,sans-Serif" font-size="13.00">one row per run</text>
</g>
<!-- docs&#45;&gt;record -->
<g id="edge8" class="edge">
<title>docs&#45;&gt;record</title>
<path fill="none" stroke="#5f6368" stroke-width="1.4" d="M467.55,-358.26C463.13,-340.36 456.85,-314.91 451.89,-294.79"/>
<polygon fill="#5f6368" stroke="#5f6368" stroke-width="1.4" points="455.22,-293.7 449.43,-284.83 448.43,-295.37 455.22,-293.7"/>
</g>
<!-- docs&#45;&gt;lake -->
<g id="edge12" class="edge">
<title>docs&#45;&gt;lake</title>
<path fill="none" stroke="#1a73e8" stroke-width="1.4" stroke-dasharray="5,2" d="M518.89,-358.26C550.07,-343.24 592.3,-322.9 629.75,-304.85"/>
<polygon fill="#1a73e8" stroke="#1a73e8" stroke-width="1.4" points="631.67,-307.81 639.16,-300.32 628.63,-301.5 631.67,-307.81"/>
<text text-anchor="middle" x="602" y="-327.57" font-family="Helvetica,sans-Serif" font-size="11.00" fill="#3c4043">docs/</text>
</g>
<!-- record&#45;&gt;sql -->
<g id="edge14" class="edge">
<title>record&#45;&gt;sql</title>
<path fill="none" stroke="#5f6368" stroke-width="1.4" d="M425.65,-238.54C410.86,-220.6 389.71,-194.94 372.12,-173.6"/>
<polygon fill="#5f6368" stroke="#5f6368" stroke-width="1.4" points="374.64,-171.16 365.58,-165.66 369.24,-175.61 374.64,-171.16"/>
<text text-anchor="middle" x="425.5" y="-190.45" font-family="Helvetica,sans-Serif" font-size="11.00" fill="#3c4043">ops.etl_runs</text>
</g>
<!-- backend -->
<g id="node13" class="node">
<title>backend</title>
<path fill="#e6f4ea" stroke="#188038" stroke-width="1.6" d="M437.5,-46C437.5,-46 242.5,-46 242.5,-46 236.5,-46 230.5,-40 230.5,-34 230.5,-34 230.5,-12 230.5,-12 230.5,-6 236.5,0 242.5,0 242.5,0 437.5,0 437.5,0 443.5,0 449.5,-6 449.5,-12 449.5,-12 449.5,-34 449.5,-34 449.5,-40 443.5,-46 437.5,-46"/>
<text text-anchor="start" x="270" y="-26.6" font-family="Helvetica,sans-Serif" font-weight="bold" font-size="13.00">backend</text>
<text text-anchor="start" x="331" y="-26.6" font-family="Helvetica,sans-Serif" font-size="13.00"> (read&#45;only)</text>
<text text-anchor="start" x="246.5" y="-13.6" font-family="Helvetica,sans-Serif" font-size="13.00">and console: data freshness</text>
</g>
<!-- sql&#45;&gt;backend -->
<g id="edge15" class="edge">
<title>sql&#45;&gt;backend</title>
<path fill="none" stroke="#188038" stroke-width="1.4" d="M340,-101.79C340,-87.69 340,-70.99 340,-56.67"/>
<polygon fill="#188038" stroke="#188038" stroke-width="1.4" points="343.5,-56.28 340,-46.28 336.5,-56.28 343.5,-56.28"/>
<text text-anchor="middle" x="369" y="-71.2" font-family="Helvetica,sans-Serif" font-size="11.00" fill="#3c4043">reads gold</text>
</g>
</g>
</svg>
